<svg xmlns="http://www.w3.org/2000/svg" xmlns:xlink="http://www.w3.org/1999/xlink" width="1353" zoomAndPan="magnify" viewBox="0 0 1014.75 259.499997" height="346" preserveAspectRatio="xMidYMid meet" version="1.0"><defs><clipPath id="c473d98710"><path d="M 0.851562 0 L 1013.648438 0 L 1013.648438 259 L 0.851562 259 Z M 0.851562 0 " clip-rule="nonzero"/></clipPath><clipPath id="7c391a01e4"><path d="M 72 18.078125 L 942.859375 18.078125 L 942.859375 241.148438 L 72 241.148438 Z M 72 18.078125 " clip-rule="nonzero"/></clipPath></defs><g clip-path="url(#c473d98710)"><path fill="#ffffff" d="M 0.851562 0 L 1013.648438 0 L 1013.648438 259 L 0.851562 259 Z M 0.851562 0 " fill-opacity="1" fill-rule="nonzero"/><path fill="#ffffff" d="M 0.851562 0 L 1013.648438 0 L 1013.648438 259 L 0.851562 259 Z M 0.851562 0 " fill-opacity="1" fill-rule="nonzero"/></g><g clip-path="url(#7c391a01e4)"><path fill="#fefefe" d="M 633.746094 241.726562 C 446.34375 241.726562 259.261719 241.726562 72.183594 241.726562 C 72.183594 167.390625 72.183594 93.054688 72.183594 18.71875 C 362.625 18.71875 653.0625 18.71875 943.503906 18.71875 C 943.503906 93.054688 943.503906 167.390625 943.503906 241.726562 C 840.359375 241.726562 737.210938 241.726562 633.746094 241.726562 M 309.835938 72.21875 C 311.550781 72.667969 313.261719 73.476562 314.984375 73.507812 C 322.273438 73.648438 329.5625 73.554688 337.03125 73.78125 C 337.15625 73.9375 337.308594 74.054688 337.515625 74.746094 C 337.535156 76.035156 337.566406 77.320312 337.566406 78.609375 C 337.570312 109.949219 337.535156 141.285156 337.644531 172.625 C 337.652344 174.667969 338.75 176.710938 339.6875 179.121094 C 340.925781 179.355469 342.160156 179.773438 343.402344 179.796875 C 347.90625 179.878906 352.414062 179.824219 356.921875 179.828125 C 362.265625 179.828125 363.179688 178.902344 363.179688 173.429688 C 363.183594 142.394531 363.179688 111.363281 363.179688 80.332031 C 363.179688 72.675781 362.679688 73.507812 369.832031 73.5 C 375.628906 73.496094 381.421875 73.554688 387.214844 73.480469 C 391.171875 73.429688 392.425781 72.144531 392.480469 68.242188 C 392.535156 64.160156 392.53125 60.082031 392.476562 56 C 392.433594 52.5625 391.457031 51.683594 387.515625 51.347656 C 387.160156 51.40625 386.804688 51.460938 385.917969 51.441406 C 385.023438 51.46875 384.128906 51.496094 382.746094 51.351562 C 365.179688 51.335938 347.613281 51.3125 330.046875 51.316406 C 326.953125 51.320312 323.855469 51.453125 320.222656 51.441406 C 319.140625 51.46875 318.058594 51.5 316.507812 51.359375 C 315.867188 51.339844 315.226562 51.308594 314.585938 51.308594 C 309.527344 51.300781 308.628906 52.199219 308.628906 57.285156 C 308.625 60.921875 308.554688 64.558594 308.675781 68.1875 C 308.71875 69.382812 309.269531 70.558594 309.644531 71.738281 C 309.644531 71.738281 309.621094 71.792969 309.835938 72.21875 M 96.175781 53.039062 C 95.933594 54.941406 95.480469 56.84375 95.476562 58.746094 C 95.433594 82.667969 95.453125 106.589844 95.453125 130.511719 C 95.453125 144.671875 95.386719 158.835938 95.527344 172.992188 C 95.546875 174.949219 96.578125 176.894531 97.488281 179.214844 C 98.519531 179.421875 99.546875 179.804688 100.578125 179.808594 C 117.515625 179.84375 134.457031 180.132812 151.382812 179.738281 C 164.003906 179.441406 174.535156 174.554688 179.363281 162.003906 C 181.273438 157.03125 182.066406 151.367188 182.152344 145.996094 C 182.472656 126.480469 182.332031 106.953125 182.230469 87.429688 C 182.210938 83.484375 181.84375 79.507812 181.210938 75.613281 C 179.003906 62.03125 169.074219 52.996094 154.65625 51.597656 C 136.984375 51.539062 119.308594 51.445312 101.636719 51.484375 C 99.960938 51.488281 98.285156 52.320312 96.175781 53.039062 M 676.308594 88.628906 C 676.707031 89.851562 677.085938 91.082031 677.503906 92.296875 C 687.164062 120.472656 696.871094 148.632812 706.410156 176.851562 C 707.246094 179.320312 708.414062 179.910156 710.765625 179.878906 C 718.917969 179.769531 727.070312 179.847656 735.226562 179.832031 C 736.148438 179.832031 737.074219 179.714844 738.429688 179.625 C 737.886719 177.890625 737.496094 176.484375 737.007812 175.113281 C 732.214844 161.703125 727.382812 148.304688 722.609375 134.886719 C 711.304688 103.105469 700.003906 71.324219 688.78125 39.511719 C 687.996094 37.285156 686.847656 36.664062 684.597656 36.699219 C 676.445312 36.824219 668.289062 36.867188 660.140625 36.679688 C 657.433594 36.617188 656.136719 37.527344 655.28125 40.035156 C 652.371094 48.550781 649.273438 57 646.257812 65.476562 C 634.515625 98.488281 622.773438 131.503906 611.039062 164.523438 C 609.296875 169.429688 607.582031 174.34375 605.722656 179.625 C 616.191406 179.625 626.121094 179.625 636.277344 179.625 C 647.753906 144.902344 659.265625 110.070312 670.78125 75.238281 C 671.132812 75.300781 671.484375 75.363281 671.832031 75.425781 C 673.273438 79.664062 674.710938 83.902344 676.308594 88.628906 M 465.261719 117.351562 C 472.066406 137.199219 478.910156 157.035156 485.617188 176.914062 C 486.367188 179.136719 487.34375 179.929688 489.707031 179.886719 C 497.859375 179.738281 506.015625 179.835938 514.171875 179.820312 C 515.1875 179.820312 516.203125 179.703125 517.714844 179.605469 C 515.746094 174.054688 513.929688 168.945312 512.117188 163.835938 C 504.105469 141.242188 496.109375 118.636719 488.074219 96.050781 C 481.363281 77.199219 474.578125 58.375 467.894531 39.511719 C 467.199219 37.539062 466.34375 36.65625 464.050781 36.703125 C 455.683594 36.871094 447.3125 36.867188 438.945312 36.703125 C 436.441406 36.652344 435.394531 37.582031 434.605469 39.835938 C 429.574219 54.175781 424.394531 68.464844 419.296875 82.777344 C 409.921875 109.109375 400.5625 135.445312 391.203125 161.785156 C 389.136719 167.597656 387.109375 173.425781 384.9375 179.601562 C 395.332031 179.601562 405.257812 179.601562 415.421875 179.601562 C 426.914062 144.820312 438.457031 109.898438 449.996094 74.980469 C 450.304688 74.996094 450.613281 75.015625 450.921875 75.03125 C 455.648438 88.976562 460.378906 102.921875 465.261719 117.351562 M 299.898438 134.058594 C 295.496094 121.761719 291.074219 109.46875 286.691406 97.167969 C 279.828125 77.90625 272.953125 58.652344 266.195312 39.355469 C 265.441406 37.199219 264.335938 36.691406 262.226562 36.722656 C 253.964844 36.832031 245.699219 36.898438 237.441406 36.6875 C 234.761719 36.617188 233.6875 37.628906 232.867188 39.964844 C 227.84375 54.308594 222.703125 68.605469 217.609375 82.925781 C 207.988281 109.964844 198.371094 137.007812 188.761719 164.050781 C 186.949219 169.144531 185.175781 174.253906 183.269531 179.671875 C 193.769531 179.671875 203.707031 179.671875 213.738281 179.671875 C 225.296875 144.691406 236.832031 109.792969 248.363281 74.894531 C 249.402344 75.757812 249.695312 76.4375 249.9375 77.132812 C 252.917969 85.839844 255.894531 94.550781 258.871094 103.261719 C 267.253906 127.785156 275.675781 152.292969 283.953125 176.847656 C 284.707031 179.097656 285.632812 179.914062 287.980469 179.878906 C 296.242188 179.753906 304.507812 179.835938 312.769531 179.824219 C 313.6875 179.820312 314.605469 179.695312 316.058594 179.589844 C 310.628906 164.308594 305.339844 149.425781 299.898438 134.058594 M 782.832031 157.859375 C 779.40625 157.722656 775.945312 157.84375 772.5625 157.390625 C 768.550781 156.855469 766.363281 154.414062 765.667969 150.40625 C 765.414062 148.933594 765.207031 147.429688 765.207031 145.941406 C 765.175781 125.53125 765.179688 105.121094 765.203125 84.710938 C 765.203125 83.539062 765.332031 82.351562 765.535156 81.195312 C 766.351562 76.484375 769.324219 73.679688 774.035156 73.566406 C 780.148438 73.414062 786.273438 73.40625 792.386719 73.558594 C 797.703125 73.6875 800.792969 76.988281 801.1875 82.707031 C 801.347656 85.058594 801.257812 87.429688 801.261719 89.792969 C 801.269531 92.652344 802.738281 94.328125 805.53125 94.394531 C 811.105469 94.523438 816.6875 94.535156 822.261719 94.375 C 824.574219 94.308594 826.421875 93.210938 826.402344 90.429688 C 826.375 86.699219 826.421875 82.964844 826.300781 79.234375 C 825.808594 64.160156 814.03125 52.113281 798.945312 51.644531 C 788.867188 51.328125 778.769531 51.304688 768.691406 51.617188 C 751.304688 52.15625 739.90625 64.257812 739.898438 81.761719 C 739.886719 104.214844 739.894531 126.664062 739.890625 149.117188 C 739.890625 167.171875 751.550781 179.292969 769.675781 179.777344 C 778.578125 180.015625 787.503906 180.140625 796.398438 179.789062 C 813.949219 179.089844 826.117188 168.519531 826.355469 149.707031 C 826.464844 141.015625 826.753906 132.328125 826.84375 123.640625 C 826.878906 120.214844 826.589844 116.785156 826.472656 113.359375 C 826.375 110.488281 824.628906 109.359375 822.0625 109.351562 C 810.367188 109.320312 798.667969 109.335938 786.96875 109.375 C 784.171875 109.382812 782.972656 110.910156 783.027344 113.695312 C 783.113281 117.777344 783.039062 121.859375 783.054688 125.941406 C 783.070312 130.359375 784.0625 131.386719 788.558594 131.480469 C 791.886719 131.550781 795.214844 131.535156 798.539062 131.492188 C 800.433594 131.46875 801.28125 132.300781 801.261719 134.199219 C 801.214844 138.925781 801.417969 143.660156 801.167969 148.375 C 800.851562 154.402344 797.894531 157.269531 791.835938 157.71875 C 789.058594 157.921875 786.257812 157.820312 782.832031 157.859375 M 532.296875 138.867188 C 528.757812 138.910156 525.214844 138.945312 521.675781 139 C 519.027344 139.042969 517.785156 140.4375 517.8125 143.0625 C 517.839844 145.851562 517.625 148.664062 517.878906 151.433594 C 519.132812 165.066406 526.695312 176.078125 541.316406 178.671875 C 547.066406 179.691406 553.039062 179.820312 558.902344 179.757812 C 567.023438 179.664062 575.269531 179.765625 583.222656 178.40625 C 594.046875 176.558594 601.011719 169.511719 604.125 158.902344 C 606.746094 149.964844 606.375 140.765625 605.0625 131.792969 C 603.632812 122.027344 598.722656 113.898438 589.1875 109.832031 C 579.863281 105.859375 569.972656 104.019531 559.871094 103.121094 C 556.289062 102.800781 552.703125 101.878906 549.261719 100.785156 C 544.867188 99.386719 542.800781 95.902344 542.730469 91.433594 C 542.683594 88.445312 543.015625 85.429688 543.449219 82.46875 C 544.328125 76.480469 547.035156 73.886719 552.988281 73.625 C 558.234375 73.390625 563.507812 73.382812 568.757812 73.605469 C 574.894531 73.863281 578.113281 77.34375 578.378906 83.484375 C 578.441406 84.988281 578.367188 86.496094 578.5 87.992188 C 578.738281 90.621094 580.222656 92.113281 582.894531 92.136719 C 588.578125 92.1875 594.269531 92.234375 599.953125 92.109375 C 602.601562 92.050781 604.078125 90.457031 604.070312 87.738281 C 604.066406 85.160156 604.109375 82.574219 603.894531 80.011719 C 602.535156 63.867188 592.0625 52.613281 576.601562 51.710938 C 565.914062 51.085938 555.132812 51.175781 544.4375 51.75 C 531.789062 52.433594 521.121094 61.210938 519.039062 73.566406 C 517.578125 82.21875 517.539062 91.339844 518.40625 100.101562 C 519.296875 109.125 523.695312 117.007812 532.40625 121.160156 C 536.617188 123.167969 541.21875 124.585938 545.792969 125.558594 C 553.324219 127.152344 561.015625 127.980469 568.570312 129.492188 C 573.878906 130.558594 578.894531 132.730469 580.097656 138.769531 C 580.710938 141.84375 580.539062 145.230469 579.992188 148.347656 C 578.84375 154.929688 576.585938 157.128906 570.023438 157.574219 C 564.15625 157.96875 558.214844 157.914062 552.355469 157.457031 C 546.546875 157.003906 544.363281 154.492188 543.507812 148.691406 C 543.257812 147.003906 543.15625 145.292969 543.078125 143.585938 C 542.910156 140.050781 541.960938 139.039062 538.402344 138.898438 C 536.582031 138.824219 534.753906 138.871094 532.296875 138.867188 M 887.800781 125.613281 C 892.519531 125.617188 897.238281 125.652344 901.960938 125.613281 C 905.367188 125.585938 906.628906 124.375 906.703125 120.972656 C 906.785156 117.21875 906.726562 113.457031 906.722656 109.699219 C 906.710938 104.675781 905.699219 103.613281 900.710938 103.601562 C 890.519531 103.574219 880.328125 103.59375 870.136719 103.597656 C 866.394531 103.601562 865.820312 103.117188 865.792969 99.398438 C 865.742188 92.527344 865.769531 85.65625 865.785156 78.78125 C 865.800781 73.644531 865.910156 73.53125 870.949219 73.527344 C 883.394531 73.515625 895.835938 73.539062 908.28125 73.507812 C 912.882812 73.496094 913.980469 72.40625 914.046875 67.832031 C 914.105469 63.96875 914.097656 60.101562 914.03125 56.238281 C 913.964844 52.402344 913.0625 51.378906 909.265625 51.371094 C 888.027344 51.328125 866.785156 51.339844 845.542969 51.390625 C 841.742188 51.398438 840.824219 52.386719 840.542969 56.132812 C 840.472656 57.09375 840.480469 58.0625 840.480469 59.027344 C 840.480469 95.425781 840.484375 131.824219 840.488281 168.21875 C 840.488281 170.472656 840.449219 172.730469 840.554688 174.984375 C 840.722656 178.597656 841.953125 179.820312 845.496094 179.824219 C 866.738281 179.847656 887.976562 179.84375 909.21875 179.828125 C 912.6875 179.828125 913.90625 178.722656 914.011719 175.269531 C 914.128906 171.40625 914.066406 167.539062 914.042969 163.675781 C 914.011719 158.671875 913.183594 157.855469 908.234375 157.855469 C 895.359375 157.851562 882.488281 157.8125 869.613281 157.890625 C 867.046875 157.90625 865.800781 156.976562 865.804688 154.378906 C 865.8125 146.003906 865.800781 137.628906 865.785156 129.257812 C 865.78125 126.78125 866.761719 125.550781 869.457031 125.605469 C 875.355469 125.726562 881.253906 125.625 887.800781 125.613281 Z M 887.800781 125.613281 " fill-opacity="1" fill-rule="nonzero"/></g><path fill="#14862e" d="M 676.230469 88.386719 C 674.710938 83.902344 673.273438 79.664062 671.832031 75.425781 C 671.484375 75.363281 671.132812 75.300781 670.78125 75.238281 C 659.265625 110.070312 647.753906 144.902344 636.277344 179.625 C 626.121094 179.625 616.191406 179.625 605.722656 179.625 C 607.582031 174.34375 609.296875 169.429688 611.039062 164.523438 C 622.773438 131.503906 634.515625 98.488281 646.257812 65.476562 C 649.273438 57 652.371094 48.550781 655.28125 40.035156 C 656.136719 37.527344 657.433594 36.617188 660.140625 36.679688 C 668.289062 36.867188 676.445312 36.824219 684.597656 36.699219 C 686.847656 36.664062 687.996094 37.285156 688.78125 39.511719 C 700.003906 71.324219 711.304688 103.105469 722.609375 134.886719 C 727.382812 148.304688 732.214844 161.703125 737.007812 175.113281 C 737.496094 176.484375 737.886719 177.890625 738.429688 179.625 C 737.074219 179.714844 736.148438 179.832031 735.226562 179.832031 C 727.070312 179.847656 718.917969 179.769531 710.765625 179.878906 C 708.414062 179.910156 707.246094 179.320312 706.410156 176.851562 C 696.871094 148.632812 687.164062 120.472656 677.503906 92.296875 C 677.085938 91.082031 676.707031 89.851562 676.230469 88.386719 Z M 676.230469 88.386719 " fill-opacity="1" fill-rule="nonzero"/><path fill="#31337c" d="M 465.183594 117.109375 C 460.378906 102.921875 455.648438 88.976562 450.921875 75.03125 C 450.613281 75.015625 450.304688 74.996094 449.996094 74.980469 C 438.457031 109.898438 426.914062 144.820312 415.421875 179.601562 C 405.257812 179.601562 395.332031 179.601562 384.9375 179.601562 C 387.109375 173.425781 389.136719 167.597656 391.203125 161.785156 C 400.5625 135.445312 409.921875 109.109375 419.296875 82.777344 C 424.394531 68.464844 429.574219 54.175781 434.605469 39.835938 C 435.394531 37.582031 436.441406 36.652344 438.945312 36.703125 C 447.3125 36.867188 455.683594 36.871094 464.050781 36.703125 C 466.34375 36.65625 467.199219 37.539062 467.894531 39.511719 C 474.578125 58.375 481.363281 77.199219 488.074219 96.050781 C 496.109375 118.636719 504.105469 141.242188 512.117188 163.835938 C 513.929688 168.945312 515.746094 174.054688 517.714844 179.605469 C 516.203125 179.703125 515.1875 179.820312 514.171875 179.820312 C 506.015625 179.835938 497.859375 179.738281 489.707031 179.886719 C 487.34375 179.929688 486.367188 179.136719 485.617188 176.914062 C 478.910156 157.035156 472.066406 137.199219 465.183594 117.109375 Z M 465.183594 117.109375 " fill-opacity="1" fill-rule="nonzero"/><path fill="#31337c" d="M 299.976562 134.300781 C 305.339844 149.425781 310.628906 164.308594 316.058594 179.589844 C 314.605469 179.695312 313.6875 179.820312 312.769531 179.824219 C 304.507812 179.835938 296.242188 179.753906 287.980469 179.878906 C 285.632812 179.914062 284.707031 179.097656 283.953125 176.847656 C 275.675781 152.292969 267.253906 127.785156 258.871094 103.261719 C 255.894531 94.550781 252.917969 85.839844 249.9375 77.132812 C 249.695312 76.4375 249.402344 75.757812 248.363281 74.894531 C 236.832031 109.792969 225.296875 144.691406 213.738281 179.671875 C 203.707031 179.671875 193.769531 179.671875 183.269531 179.671875 C 185.175781 174.253906 186.949219 169.144531 188.761719 164.050781 C 198.371094 137.007812 207.988281 109.964844 217.609375 82.925781 C 222.703125 68.605469 227.84375 54.308594 232.867188 39.964844 C 233.6875 37.628906 234.761719 36.617188 237.441406 36.6875 C 245.699219 36.898438 253.964844 36.832031 262.226562 36.722656 C 264.335938 36.691406 265.441406 37.199219 266.195312 39.355469 C 272.953125 58.652344 279.828125 77.90625 286.691406 97.167969 C 291.074219 109.46875 295.496094 121.761719 299.976562 134.300781 Z M 299.976562 134.300781 " fill-opacity="1" fill-rule="nonzero"/><path fill="#31337c" d="M 155.246094 51.738281 C 169.074219 52.996094 179.003906 62.03125 181.210938 75.613281 C 181.84375 79.507812 182.210938 83.484375 182.230469 87.429688 C 182.332031 106.953125 182.472656 126.480469 182.152344 145.996094 C 182.066406 151.367188 181.273438 157.03125 179.363281 162.003906 C 174.535156 174.554688 164.003906 179.441406 151.382812 179.738281 C 134.457031 180.132812 117.515625 179.84375 100.578125 179.808594 C 99.546875 179.804688 98.519531 179.421875 97.335938 178.742188 C 96.988281 176.789062 96.625 175.3125 96.625 173.835938 C 96.605469 133.957031 96.621094 94.074219 96.875 54.15625 C 99.070312 52.351562 101.398438 52.179688 103.933594 52.195312 C 119.902344 52.277344 135.867188 52.246094 151.835938 52.214844 C 152.972656 52.210938 154.109375 51.902344 155.246094 51.738281 M 120.855469 75.621094 C 120.859375 100.964844 120.863281 126.308594 120.871094 151.652344 C 120.875 152.832031 120.910156 154.015625 120.941406 155.195312 C 120.988281 157.035156 121.941406 157.898438 123.78125 157.890625 C 131.503906 157.855469 139.238281 158.035156 146.953125 157.765625 C 153.605469 157.53125 156.582031 154.140625 156.589844 147.453125 C 156.613281 126.1875 156.617188 104.925781 156.589844 83.660156 C 156.582031 76.789062 153.375 73.542969 146.589844 73.503906 C 139.1875 73.464844 131.78125 73.421875 124.378906 73.574219 C 123.085938 73.597656 121.8125 74.566406 120.195312 75.585938 C 120.074219 76.53125 119.851562 77.476562 119.851562 78.417969 C 119.832031 102.332031 119.835938 126.246094 119.847656 150.160156 C 119.847656 150.769531 119.972656 151.378906 120.042969 151.984375 C 120.472656 150.796875 120.46875 149.632812 120.472656 148.46875 C 120.507812 124.019531 120.542969 99.570312 120.855469 75.621094 M 119.574219 153.757812 C 119.574219 153.757812 119.503906 153.800781 119.574219 153.757812 Z M 119.574219 153.757812 " fill-opacity="1" fill-rule="nonzero"/><path fill="#14862e" d="M 783.152344 157.859375 C 786.257812 157.820312 789.058594 157.921875 791.835938 157.71875 C 797.894531 157.269531 800.851562 154.402344 801.167969 148.375 C 801.417969 143.660156 801.214844 138.925781 801.261719 134.199219 C 801.28125 132.300781 800.433594 131.46875 798.539062 131.492188 C 795.214844 131.535156 791.886719 131.550781 788.558594 131.480469 C 784.0625 131.386719 783.070312 130.359375 783.054688 125.941406 C 783.039062 121.859375 783.113281 117.777344 783.027344 113.695312 C 782.972656 110.910156 784.171875 109.382812 786.96875 109.375 C 798.667969 109.335938 810.367188 109.320312 822.0625 109.351562 C 824.628906 109.359375 826.375 110.488281 826.472656 113.359375 C 826.589844 116.785156 826.878906 120.214844 826.84375 123.640625 C 826.753906 132.328125 826.464844 141.015625 826.355469 149.707031 C 826.117188 168.519531 813.949219 179.089844 796.398438 179.789062 C 787.503906 180.140625 778.578125 180.015625 769.675781 179.777344 C 751.550781 179.292969 739.890625 167.171875 739.890625 149.117188 C 739.894531 126.664062 739.886719 104.214844 739.898438 81.761719 C 739.90625 64.257812 751.304688 52.15625 768.691406 51.617188 C 778.769531 51.304688 788.867188 51.328125 798.945312 51.644531 C 814.03125 52.113281 825.808594 64.160156 826.300781 79.234375 C 826.421875 82.964844 826.375 86.699219 826.402344 90.429688 C 826.421875 93.210938 824.574219 94.308594 822.261719 94.375 C 816.6875 94.535156 811.105469 94.523438 805.53125 94.394531 C 802.738281 94.328125 801.269531 92.652344 801.261719 89.792969 C 801.257812 87.429688 801.347656 85.058594 801.1875 82.707031 C 800.792969 76.988281 797.703125 73.6875 792.386719 73.558594 C 786.273438 73.40625 780.148438 73.414062 774.035156 73.566406 C 769.324219 73.679688 766.351562 76.484375 765.535156 81.195312 C 765.332031 82.351562 765.203125 83.539062 765.203125 84.710938 C 765.179688 105.121094 765.175781 125.53125 765.207031 145.941406 C 765.207031 147.429688 765.414062 148.933594 765.667969 150.40625 C 766.363281 154.414062 768.550781 156.855469 772.5625 157.390625 C 775.945312 157.84375 779.40625 157.722656 783.152344 157.859375 Z M 783.152344 157.859375 " fill-opacity="1" fill-rule="nonzero"/><path fill="#15862e" d="M 532.613281 138.867188 C 534.753906 138.871094 536.582031 138.824219 538.402344 138.898438 C 541.960938 139.039062 542.910156 140.050781 543.078125 143.585938 C 543.15625 145.292969 543.257812 147.003906 543.507812 148.691406 C 544.363281 154.492188 546.546875 157.003906 552.355469 157.457031 C 558.214844 157.914062 564.15625 157.96875 570.023438 157.574219 C 576.585938 157.128906 578.84375 154.929688 579.992188 148.347656 C 580.539062 145.230469 580.710938 141.84375 580.097656 138.769531 C 578.894531 132.730469 573.878906 130.558594 568.570312 129.492188 C 561.015625 127.980469 553.324219 127.152344 545.792969 125.558594 C 541.21875 124.585938 536.617188 123.167969 532.40625 121.160156 C 523.695312 117.007812 519.296875 109.125 518.40625 100.101562 C 517.539062 91.339844 517.578125 82.21875 519.039062 73.566406 C 521.121094 61.210938 531.789062 52.433594 544.4375 51.75 C 555.132812 51.175781 565.914062 51.085938 576.601562 51.710938 C 592.0625 52.613281 602.535156 63.867188 603.894531 80.011719 C 604.109375 82.574219 604.066406 85.160156 604.070312 87.738281 C 604.078125 90.457031 602.601562 92.050781 599.953125 92.109375 C 594.269531 92.234375 588.578125 92.1875 582.894531 92.136719 C 580.222656 92.113281 578.738281 90.621094 578.5 87.992188 C 578.367188 86.496094 578.441406 84.988281 578.378906 83.484375 C 578.113281 77.34375 574.894531 73.863281 568.757812 73.605469 C 563.507812 73.382812 558.234375 73.390625 552.988281 73.625 C 547.035156 73.886719 544.328125 76.480469 543.449219 82.46875 C 543.015625 85.429688 542.683594 88.445312 542.730469 91.433594 C 542.800781 95.902344 544.867188 99.386719 549.261719 100.785156 C 552.703125 101.878906 556.289062 102.800781 559.871094 103.121094 C 569.972656 104.019531 579.863281 105.859375 589.1875 109.832031 C 598.722656 113.898438 603.632812 122.027344 605.0625 131.792969 C 606.375 140.765625 606.746094 149.964844 604.125 158.902344 C 601.011719 169.511719 594.046875 176.558594 583.222656 178.40625 C 575.269531 179.765625 567.023438 179.664062 558.902344 179.757812 C 553.039062 179.820312 547.066406 179.691406 541.316406 178.671875 C 526.695312 176.078125 519.132812 165.066406 517.878906 151.433594 C 517.625 148.664062 517.839844 145.851562 517.8125 143.0625 C 517.785156 140.4375 519.027344 139.042969 521.675781 139 C 525.214844 138.945312 528.757812 138.910156 532.613281 138.867188 Z M 532.613281 138.867188 " fill-opacity="1" fill-rule="nonzero"/><path fill="#14862d" d="M 887.476562 125.613281 C 881.253906 125.625 875.355469 125.726562 869.457031 125.605469 C 866.761719 125.550781 865.78125 126.78125 865.785156 129.257812 C 865.800781 137.628906 865.8125 146.003906 865.804688 154.378906 C 865.800781 156.976562 867.046875 157.90625 869.613281 157.890625 C 882.488281 157.8125 895.359375 157.851562 908.234375 157.855469 C 913.183594 157.855469 914.011719 158.671875 914.042969 163.675781 C 914.066406 167.539062 914.128906 171.40625 914.011719 175.269531 C 913.90625 178.722656 912.6875 179.828125 909.21875 179.828125 C 887.976562 179.84375 866.738281 179.847656 845.496094 179.824219 C 841.953125 179.820312 840.722656 178.597656 840.554688 174.984375 C 840.449219 172.730469 840.488281 170.472656 840.488281 168.21875 C 840.484375 131.824219 840.480469 95.425781 840.480469 59.027344 C 840.480469 58.0625 840.472656 57.09375 840.542969 56.132812 C 840.824219 52.386719 841.742188 51.398438 845.542969 51.390625 C 866.785156 51.339844 888.027344 51.328125 909.265625 51.371094 C 913.0625 51.378906 913.964844 52.402344 914.03125 56.238281 C 914.097656 60.101562 914.105469 63.96875 914.046875 67.832031 C 913.980469 72.40625 912.882812 73.496094 908.28125 73.507812 C 895.835938 73.539062 883.394531 73.515625 870.949219 73.527344 C 865.910156 73.53125 865.800781 73.644531 865.785156 78.78125 C 865.769531 85.65625 865.742188 92.527344 865.792969 99.398438 C 865.820312 103.117188 866.394531 103.601562 870.136719 103.597656 C 880.328125 103.59375 890.519531 103.574219 900.710938 103.601562 C 905.699219 103.613281 906.710938 104.675781 906.722656 109.699219 C 906.726562 113.457031 906.785156 117.21875 906.703125 120.972656 C 906.628906 124.375 905.367188 125.585938 901.960938 125.613281 C 897.238281 125.652344 892.519531 125.617188 887.476562 125.613281 Z M 887.476562 125.613281 " fill-opacity="1" fill-rule="nonzero"/><path fill="#30337c" d="M 316.972656 51.527344 C 318.058594 51.5 319.140625 51.46875 320.683594 51.667969 C 321.667969 51.984375 322.1875 52.15625 322.707031 52.15625 C 342.089844 52.167969 361.476562 52.175781 380.859375 52.140625 C 381.652344 52.140625 382.441406 51.738281 383.234375 51.523438 C 384.128906 51.496094 385.023438 51.46875 386.277344 51.621094 C 387.007812 51.703125 387.375 51.605469 387.742188 51.507812 C 391.457031 51.683594 392.433594 52.5625 392.476562 56 C 392.53125 60.082031 392.535156 64.160156 392.480469 68.242188 C 392.425781 72.144531 391.171875 73.429688 387.214844 73.480469 C 381.421875 73.554688 375.628906 73.496094 369.832031 73.5 C 362.679688 73.507812 363.179688 72.675781 363.179688 80.332031 C 363.179688 111.363281 363.183594 142.394531 363.179688 173.429688 C 363.179688 178.902344 362.265625 179.828125 356.921875 179.828125 C 352.414062 179.824219 347.90625 179.878906 343.402344 179.796875 C 342.160156 179.773438 340.925781 179.355469 339.496094 178.65625 C 339.121094 176.613281 338.777344 175.027344 338.773438 173.445312 C 338.742188 141.507812 338.761719 109.570312 338.691406 77.632812 C 338.691406 76.46875 337.910156 75.304688 337.492188 74.140625 C 337.308594 74.054688 337.15625 73.9375 336.753906 73.472656 C 335.113281 73.070312 333.746094 72.957031 332.378906 72.890625 C 324.792969 72.515625 317.207031 72.15625 309.621094 71.792969 C 309.621094 71.792969 309.644531 71.738281 309.671875 71.429688 C 309.71875 66.324219 310.003906 61.503906 309.664062 56.730469 C 309.410156 53.152344 311.65625 52.464844 314.121094 51.742188 C 315.015625 51.480469 316.019531 51.585938 316.972656 51.527344 Z M 316.972656 51.527344 " fill-opacity="1" fill-rule="nonzero"/><path fill="#6c5578" d="M 96.632812 54.191406 C 96.621094 94.074219 96.605469 133.957031 96.625 173.835938 C 96.625 175.3125 96.988281 176.789062 97.160156 178.554688 C 96.578125 176.894531 95.546875 174.949219 95.527344 172.992188 C 95.386719 158.835938 95.453125 144.671875 95.453125 130.511719 C 95.453125 106.589844 95.433594 82.667969 95.476562 58.746094 C 95.480469 56.84375 95.933594 54.941406 96.402344 53.140625 C 96.628906 53.558594 96.632812 53.875 96.632812 54.191406 Z M 96.632812 54.191406 " fill-opacity="1" fill-rule="nonzero"/><path fill="#69517e" d="M 337.503906 74.445312 C 337.910156 75.304688 338.691406 76.46875 338.691406 77.632812 C 338.761719 109.570312 338.742188 141.507812 338.773438 173.445312 C 338.777344 175.027344 339.121094 176.613281 339.324219 178.476562 C 338.75 176.710938 337.652344 174.667969 337.644531 172.625 C 337.535156 141.285156 337.570312 109.949219 337.566406 78.609375 C 337.566406 77.320312 337.535156 76.035156 337.503906 74.445312 Z M 337.503906 74.445312 " fill-opacity="1" fill-rule="nonzero"/><path fill="#69517e" d="M 382.988281 51.4375 C 382.441406 51.738281 381.652344 52.140625 380.859375 52.140625 C 361.476562 52.175781 342.089844 52.167969 322.707031 52.15625 C 322.1875 52.15625 321.667969 51.984375 320.953125 51.707031 C 323.855469 51.453125 326.953125 51.320312 330.046875 51.316406 C 347.613281 51.3125 365.179688 51.335938 382.988281 51.4375 Z M 382.988281 51.4375 " fill-opacity="1" fill-rule="nonzero"/><path fill="#353565" d="M 96.875 54.15625 C 96.632812 53.875 96.628906 53.558594 96.617188 53.003906 C 98.285156 52.320312 99.960938 51.488281 101.636719 51.484375 C 119.308594 51.445312 136.984375 51.539062 154.949219 51.667969 C 154.109375 51.902344 152.972656 52.210938 151.835938 52.214844 C 135.867188 52.246094 119.902344 52.277344 103.933594 52.195312 C 101.398438 52.179688 99.070312 52.351562 96.875 54.15625 Z M 96.875 54.15625 " fill-opacity="1" fill-rule="nonzero"/><path fill="#69517e" d="M 316.742188 51.441406 C 316.019531 51.585938 315.015625 51.480469 314.121094 51.742188 C 311.65625 52.464844 309.410156 53.152344 309.664062 56.730469 C 310.003906 61.503906 309.71875 66.324219 309.644531 71.433594 C 309.269531 70.558594 308.71875 69.382812 308.675781 68.1875 C 308.554688 64.558594 308.625 60.921875 308.628906 57.285156 C 308.628906 52.199219 309.527344 51.300781 314.585938 51.308594 C 315.226562 51.308594 315.867188 51.339844 316.742188 51.441406 Z M 316.742188 51.441406 " fill-opacity="1" fill-rule="nonzero"/><path fill="#69517e" d="M 309.726562 72.003906 C 317.207031 72.15625 324.792969 72.515625 332.378906 72.890625 C 333.746094 72.957031 335.113281 73.070312 336.667969 73.355469 C 329.5625 73.554688 322.273438 73.648438 314.984375 73.507812 C 313.261719 73.476562 311.550781 72.667969 309.726562 72.003906 Z M 309.726562 72.003906 " fill-opacity="1" fill-rule="nonzero"/><path fill="#69517e" d="M 387.628906 51.429688 C 387.375 51.605469 387.007812 51.703125 386.546875 51.660156 C 386.804688 51.460938 387.160156 51.40625 387.628906 51.429688 Z M 387.628906 51.429688 " fill-opacity="1" fill-rule="nonzero"/><path fill="#fefefe" d="M 120.53125 75.097656 C 121.8125 74.566406 123.085938 73.597656 124.378906 73.574219 C 131.78125 73.421875 139.1875 73.464844 146.589844 73.503906 C 153.375 73.542969 156.582031 76.789062 156.589844 83.660156 C 156.617188 104.925781 156.613281 126.1875 156.589844 147.453125 C 156.582031 154.140625 153.605469 157.53125 146.953125 157.765625 C 139.238281 158.035156 131.503906 157.855469 123.78125 157.890625 C 121.941406 157.898438 120.988281 157.035156 120.941406 155.195312 C 120.910156 154.015625 120.875 152.832031 120.871094 151.652344 C 120.863281 126.308594 120.859375 100.964844 120.691406 75.386719 C 120.53125 75.152344 120.53125 75.097656 120.53125 75.097656 Z M 120.53125 75.097656 " fill-opacity="1" fill-rule="nonzero"/><path fill="#1f377f" d="M 120.554688 75.136719 C 120.542969 99.570312 120.507812 124.019531 120.472656 148.46875 C 120.46875 149.632812 120.472656 150.796875 120.042969 151.984375 C 119.972656 151.378906 119.847656 150.769531 119.847656 150.160156 C 119.835938 126.246094 119.832031 102.332031 119.851562 78.417969 C 119.851562 77.476562 120.074219 76.53125 120.363281 75.339844 C 120.53125 75.097656 120.53125 75.152344 120.554688 75.136719 Z M 120.554688 75.136719 " fill-opacity="1" fill-rule="nonzero"/><path fill="#1f377f" d="M 119.539062 153.78125 C 119.503906 153.800781 119.574219 153.757812 119.539062 153.78125 Z M 119.539062 153.78125 " fill-opacity="1" fill-rule="nonzero"/></svg>